<svg width="24" height="24" viewBox="0 0 24 24" fill="none" xmlns="http://www.w3.org/2000/svg">
<path d="M21.7501 12C21.7472 9.41576 20.7195 6.93811 18.8925 5.11038C17.0655 3.28266 14.5883 2.25404 12.004 2.25008L12.0001 2.24664L11.9962 2.25008C9.41135 2.25167 6.93296 3.27959 5.10579 5.10788C3.27862 6.93616 2.25221 9.41518 2.2522 12C2.25218 14.5848 3.27857 17.0638 5.10572 18.8921C6.93288 20.7204 9.41126 21.7484 11.9961 21.75L12.0001 21.7535L12.0041 21.75C14.5884 21.746 17.0656 20.7174 18.8926 18.8896C20.7195 17.0619 21.7472 14.5843 21.7501 12ZM20.2156 11.25H16.4794C16.3302 8.47156 15.3533 5.90463 13.7134 3.92943C15.4356 4.29802 16.9951 5.20692 18.1647 6.52371C19.3343 7.8405 20.0528 9.49636 20.2156 11.25ZM9.02435 12.75H14.9758C14.8062 15.4459 13.7295 17.9722 12.0001 19.7289C10.2707 17.9722 9.194 15.4459 9.02435 12.75ZM9.02435 11.25C9.194 8.55408 10.2707 6.02782 12.0001 4.27115C13.7295 6.02782 14.8062 8.55408 14.9758 11.25L9.02435 11.25ZM13.7133 20.0706C15.3533 18.0954 16.3301 15.5284 16.4794 12.75H20.2156C20.0528 14.5037 19.3343 16.1596 18.1647 17.4764C16.9951 18.7932 15.4355 19.7021 13.7133 20.0706Z" fill="#010E68"/>
</svg>
