<svg width="64" height="64" viewBox="0 0 64 64" fill="none" xmlns="http://www.w3.org/2000/svg">
<path d="M5.98125 18.2773L30.6399 3.49331C31.0544 3.24464 31.5286 3.11328 32.0119 3.11328C32.4952 3.11328 32.9695 3.24464 33.3839 3.49331L58.0186 18.28C58.2162 18.3984 58.3798 18.5661 58.4934 18.7665C58.607 18.967 58.6666 19.1935 58.6666 19.424V53.3333C58.6666 54.0406 58.3856 54.7188 57.8855 55.2189C57.3854 55.719 56.7072 56 55.9999 56H7.99992C7.29267 56 6.6144 55.719 6.1143 55.2189C5.6142 54.7188 5.33325 54.0406 5.33325 53.3333V19.4213C5.3332 19.1909 5.39287 18.9644 5.50644 18.7639C5.62001 18.5634 5.7836 18.3957 5.98125 18.2773ZM48.9226 21.984L32.1626 36.488L15.0586 21.968L11.6079 26.032L32.1946 43.512L52.4106 26.0186L48.9226 21.984Z" fill="#FCCA33"/>
</svg>
