<svg width="64" height="64" viewBox="0 0 64 64" fill="none" xmlns="http://www.w3.org/2000/svg">
<path d="M55.4929 39.6067L43.7834 34.5884C43.1721 34.3252 42.5046 34.2192 41.8418 34.2801C41.179 34.341 40.5419 34.5668 39.9888 34.937L33.728 39.1104C29.9016 37.2493 26.8047 34.166 24.9268 30.3479L24.9272 30.3474L29.0859 23.9929C29.4479 23.4413 29.6675 22.8085 29.7251 22.1512C29.7827 21.4939 29.6765 20.8325 29.416 20.2263L24.3931 8.50684C24.0512 7.71132 23.4608 7.04795 22.7103 6.61607C21.9598 6.18418 21.0896 6.00701 20.23 6.11109C16.8521 6.54539 13.748 8.19456 11.4973 10.7505C9.24663 13.3065 8.00345 16.5944 8 20C8 39.8506 24.1494 56 44 56C47.4057 55.9965 50.6936 54.7533 53.2496 52.5026C55.8055 50.2519 57.4547 47.1477 57.8889 43.7698C57.9927 42.9102 57.8154 42.0401 57.3835 41.2896C56.9516 40.5392 56.2883 39.9488 55.4929 39.6067Z" fill="#FCCA33"/>
<path d="M39.3379 11.9322C42.3891 12.7526 45.1712 14.3605 47.4054 16.5947C49.6396 18.8289 51.2474 21.6109 52.0679 24.6622C52.2057 25.1736 52.5408 25.6095 52.9996 25.8741C53.4585 26.1388 54.0035 26.2106 54.5153 26.0739C55.027 25.9371 55.4636 25.6029 55.7292 25.1447C55.9948 24.6864 56.0678 24.1415 55.9321 23.6295C54.9292 19.8995 52.9637 16.4987 50.2326 13.7675C47.5014 11.0364 44.1005 9.0709 40.3706 8.06795C39.8586 7.93227 39.3137 8.00526 38.8554 8.27088C38.3971 8.53651 38.063 8.97308 37.9262 9.4848C37.7895 9.99653 37.8613 10.5416 38.1259 11.0004C38.3906 11.4593 38.8265 11.7944 39.3379 11.9322L39.3379 11.9322Z" fill="#FCCA33"/>
<path d="M37.2669 19.6615C38.9619 20.1173 40.5074 21.0105 41.7485 22.2516C42.9896 23.4927 43.8828 25.0382 44.3386 26.7332C44.4765 27.2447 44.8116 27.6805 45.2704 27.9452C45.7292 28.2098 46.2743 28.2817 46.786 28.1449C47.2978 28.0082 47.7343 27.674 47.9999 27.2157C48.2656 26.7575 48.3386 26.2125 48.2029 25.7005C47.5646 23.3268 46.3138 21.1625 44.5757 19.4244C42.8376 17.6863 40.6733 16.4354 38.2996 15.7972C37.7876 15.6615 37.2426 15.7345 36.7844 16.0001C36.3261 16.2658 35.9919 16.7023 35.8552 17.2141C35.7184 17.7258 35.7902 18.2709 36.0549 18.7297C36.3195 19.1885 36.7554 19.5236 37.2668 19.6614L37.2669 19.6615Z" fill="#FCCA33"/>
</svg>
