<svg width="555" height="206" viewBox="0 0 555 206" fill="none" xmlns="http://www.w3.org/2000/svg">
<g clip-path="url(#clip0_458_115)">
<path d="M90.2974 102.266L53.764 81.1752L90.2974 60.0811L126.831 81.1752L90.2974 102.266Z" fill="#F5F5F5"/>
<path d="M90.2161 144.361L126.753 123.267V81.079L90.2161 102.173V144.361Z" fill="#DCDCF9"/>
<path d="M90.3752 102.173L53.838 81.079V123.267L90.3752 144.361V102.173Z" fill="#EBEBF7"/>
<path d="M89.0577 0L0 51.4177L27.4038 67.2383L89.0577 31.6411L150.712 67.2383L178.112 51.4177L89.0577 0Z" fill="white"/>
<path d="M150.712 67.2383V138.429L89.0577 174.026L50.2372 151.615V167.846V183.256L89.0577 205.664L178.112 154.25V51.4177L150.712 67.2383Z" fill="white"/>
<path d="M0 51.4177V154.249L13.7556 142.781L27.4038 154.249V138.429V67.2383L0 51.4177Z" fill="white"/>
<path d="M235.832 22.604C235.832 21.3235 236.598 20.5538 237.878 20.5538H268.594C280.629 20.5538 287.027 26.956 287.027 38.9907V70.2248C287.027 82.13 280.629 88.6617 268.594 88.6617H253.24V120.921C253.24 122.201 252.6 122.971 251.193 122.971H237.871C236.59 122.971 235.824 122.201 235.824 120.921L235.832 22.604ZM264.509 71.7606C267.961 71.7606 269.627 69.8399 269.627 66.6425V42.5582C269.627 39.2276 267.961 37.4364 264.509 37.4364H253.24V71.7458L264.509 71.7606Z" fill="#F5F5F5"/>
<path d="M355.824 70.2248C355.824 78.803 352.622 84.4355 346.479 87.1222L355.309 120.666C355.679 122.201 354.939 122.971 353.518 122.971H340.195C338.915 122.971 338.275 122.327 338.016 121.176L329.441 88.6617H320.619V120.921C320.619 122.201 319.849 122.971 318.572 122.971H305.25C303.969 122.971 303.203 122.201 303.203 120.921V22.604C303.203 21.3235 303.969 20.5538 305.25 20.5538H337.383C349.414 20.5538 355.816 26.956 355.816 38.9907L355.824 70.2248ZM333.294 71.7606C336.624 71.7606 338.415 69.9694 338.415 66.6425V42.5582C338.415 39.2276 336.621 37.4364 333.294 37.4364H320.619V71.7458L333.294 71.7606Z" fill="#F5F5F5"/>
<path d="M390.381 20.5538C391.658 20.5538 392.428 21.3235 392.428 22.604V120.921C392.428 122.201 391.658 122.971 390.381 122.971H377.058C375.652 122.971 375.012 122.201 375.012 120.921V22.604C375.012 21.3235 375.652 20.5538 377.058 20.5538H390.381Z" fill="#F5F5F5"/>
<path d="M482.04 20.5538C483.702 20.5538 484.598 21.4494 484.598 23.1147V120.41C484.598 122.072 483.702 122.971 482.04 122.971H470.131C468.47 122.971 467.571 122.072 467.571 120.41V62.8012H466.66L454.004 120.666C453.634 122.201 452.723 122.971 451.187 122.971H444.896C443.364 122.971 442.465 122.201 442.084 120.666L429.424 62.8012H428.543V120.41C428.543 122.072 427.647 122.971 425.986 122.971H414.206C412.545 122.971 411.649 122.072 411.649 120.41V23.1147C411.649 21.4494 412.545 20.5538 414.206 20.5538H431.107C432.64 20.5538 433.539 21.3236 433.924 22.8594L448.112 86.5968L462.323 22.8445C462.693 21.3088 463.603 20.539 465.139 20.539L482.04 20.5538Z" fill="#F5F5F5"/>
<path d="M503.793 38.9907C503.793 26.956 510.196 20.5538 522.227 20.5538H536.567C548.602 20.5538 555 26.956 555 38.9907V104.534C555 116.569 548.602 122.971 536.567 122.971H522.227C510.196 122.971 503.793 116.569 503.793 104.534V38.9907ZM533.366 106.455C536.696 106.455 538.484 104.789 538.484 101.333V42.1882C538.484 38.8575 536.693 37.0664 533.366 37.0664H525.938C522.608 37.0664 520.82 38.8575 520.82 42.1882V101.333C520.82 104.789 522.612 106.455 525.938 106.455H533.366Z" fill="#F5F5F5"/>
<path d="M269.427 178.572C269.427 180.155 269.699 181.342 270.243 182.133C270.787 182.875 271.603 183.444 272.691 183.839L271.133 188.587C269.105 188.34 267.473 187.771 266.237 186.881C265 185.991 264.085 184.606 263.492 182.727C260.871 186.634 256.988 188.587 251.845 188.587C247.987 188.587 244.945 187.499 242.72 185.323C240.494 183.147 239.381 180.303 239.381 176.792C239.381 172.637 240.865 169.447 243.833 167.222C246.85 164.996 251.103 163.883 256.593 163.883H262.602V160.99C262.602 158.221 261.934 156.242 260.599 155.055C259.263 153.868 257.211 153.275 254.441 153.275C251.573 153.275 248.061 153.967 243.907 155.352L242.201 150.382C247.047 148.601 251.548 147.711 255.702 147.711C260.302 147.711 263.739 148.848 266.014 151.123C268.289 153.349 269.427 156.539 269.427 160.693V178.572ZM253.403 183.468C257.31 183.468 260.376 181.441 262.602 177.385V168.409H257.483C250.262 168.409 246.652 171.079 246.652 176.421C246.652 178.745 247.22 180.501 248.358 181.688C249.495 182.875 251.177 183.468 253.403 183.468Z" fill="white"/>
<path d="M299.913 147.711C302.238 147.711 304.364 148.057 306.293 148.749C308.222 149.392 310.077 150.456 311.857 151.939L308.593 156.242C307.208 155.253 305.848 154.536 304.513 154.091C303.227 153.596 301.792 153.349 300.21 153.349C297.045 153.349 294.572 154.61 292.791 157.132C291.06 159.655 290.195 163.389 290.195 168.335C290.195 173.28 291.06 176.94 292.791 179.314C294.522 181.639 296.995 182.801 300.21 182.801C301.743 182.801 303.153 182.578 304.438 182.133C305.724 181.639 307.159 180.872 308.741 179.833L311.857 184.284C308.296 187.153 304.315 188.587 299.913 188.587C294.621 188.587 290.442 186.807 287.376 183.246C284.359 179.685 282.85 174.764 282.85 168.483C282.85 164.328 283.543 160.693 284.928 157.578C286.312 154.462 288.266 152.038 290.788 150.307C293.36 148.576 296.402 147.711 299.913 147.711Z" fill="white"/>
<path d="M348.933 178.572C348.933 180.155 349.205 181.342 349.749 182.133C350.293 182.875 351.109 183.444 352.197 183.839L350.639 188.587C348.612 188.34 346.98 187.771 345.743 186.881C344.507 185.991 343.592 184.606 342.998 182.727C340.377 186.634 336.495 188.587 331.351 188.587C327.493 188.587 324.452 187.499 322.226 185.323C320.001 183.147 318.888 180.303 318.888 176.792C318.888 172.637 320.372 169.447 323.339 167.222C326.356 164.996 330.609 163.883 336.099 163.883H342.108V160.99C342.108 158.221 341.44 156.242 340.105 155.055C338.77 153.868 336.717 153.275 333.948 153.275C331.079 153.275 327.568 153.967 323.413 155.352L321.707 150.382C326.554 148.601 331.054 147.711 335.209 147.711C339.808 147.711 343.246 148.848 345.521 151.123C347.796 153.349 348.933 156.539 348.933 160.693V178.572ZM332.909 183.468C336.816 183.468 339.882 181.441 342.108 177.385V168.409H336.989C329.768 168.409 326.158 171.079 326.158 176.421C326.158 178.745 326.727 180.501 327.864 181.688C329.002 182.875 330.683 183.468 332.909 183.468Z" fill="white"/>
<path d="M395.444 132.874V187.697H389.435L388.767 182.281C387.481 184.26 385.874 185.818 383.945 186.955C382.016 188.043 379.865 188.587 377.491 188.587C372.842 188.587 369.207 186.757 366.585 183.098C364.014 179.438 362.728 174.517 362.728 168.335C362.728 164.328 363.346 160.768 364.582 157.652C365.819 154.536 367.599 152.113 369.924 150.382C372.248 148.601 374.968 147.711 378.084 147.711C382.09 147.711 385.602 149.318 388.619 152.533V132.058L395.444 132.874ZM378.974 183.172C381.052 183.172 382.832 182.702 384.316 181.762C385.8 180.773 387.234 179.314 388.619 177.385V158.245C387.333 156.564 385.948 155.303 384.464 154.462C383.03 153.572 381.398 153.126 379.568 153.126C376.551 153.126 374.202 154.388 372.52 156.91C370.888 159.432 370.072 163.191 370.072 168.186C370.072 173.231 370.839 176.99 372.372 179.462C373.905 181.935 376.106 183.172 378.974 183.172Z" fill="white"/>
<path d="M441.265 166.999C441.265 168.137 441.216 169.299 441.117 170.486H416.19C416.487 174.789 417.575 177.954 419.454 179.982C421.334 182.009 423.757 183.023 426.725 183.023C428.604 183.023 430.335 182.751 431.918 182.207C433.5 181.663 435.157 180.798 436.888 179.611L439.856 183.691C435.701 186.955 431.151 188.587 426.205 188.587C420.765 188.587 416.512 186.807 413.445 183.246C410.428 179.685 408.92 174.789 408.92 168.557C408.92 164.502 409.563 160.916 410.849 157.8C412.184 154.635 414.064 152.162 416.487 150.382C418.96 148.601 421.853 147.711 425.167 147.711C430.36 147.711 434.341 149.417 437.111 152.83C439.88 156.242 441.265 160.965 441.265 166.999ZM434.514 164.996C434.514 161.138 433.748 158.196 432.214 156.168C430.681 154.14 428.381 153.126 425.315 153.126C419.726 153.126 416.685 157.231 416.19 165.441H434.514V164.996Z" fill="white"/>
<path d="M493.635 147.711C496.849 147.711 499.421 148.799 501.35 150.975C503.279 153.102 504.243 155.995 504.243 159.655V187.697H497.418V160.619C497.418 155.575 495.588 153.052 491.928 153.052C489.999 153.052 488.367 153.621 487.032 154.759C485.697 155.847 484.262 157.578 482.729 159.952V187.697H475.904V160.619C475.904 155.575 474.074 153.052 470.414 153.052C468.436 153.052 466.779 153.621 465.444 154.759C464.109 155.896 462.699 157.627 461.215 159.952V187.697H454.39V148.601H460.251L460.844 154.313C463.762 149.912 467.521 147.711 472.121 147.711C474.544 147.711 476.596 148.329 478.278 149.565C480.009 150.802 481.245 152.533 481.987 154.759C483.521 152.483 485.202 150.752 487.032 149.565C488.911 148.329 491.112 147.711 493.635 147.711Z" fill="white"/>
<path d="M535.37 187.92C533.837 192.47 531.686 196.055 528.916 198.677C526.196 201.347 522.289 202.955 517.195 203.499L516.453 198.157C519.025 197.712 521.077 197.069 522.611 196.228C524.144 195.388 525.355 194.3 526.246 192.964C527.185 191.678 528.051 189.923 528.842 187.697H526.542L513.411 148.601H520.682L531.142 182.727L541.38 148.601H548.427L535.37 187.92Z" fill="white"/>
</g>
<defs>
<clipPath id="clip0_458_115">
<rect width="555" height="205.664" fill="white"/>
</clipPath>
</defs>
</svg>
